<svg xmlns="http://www.w3.org/2000/svg" aria-hidden="true" style="position:absolute;width:0;height:0;overflow:hidden"><defs><symbol id="icon-Icon-1" viewBox="0 0 75 32"><path fill="#f4f4fd" d="M1.143.143h73.143a1 1 0 0 1 1 1v29.714a1 1 0 0 1-1 1H1.143a1 1 0 0 1-1-1V1.143a1 1 0 0 1 1-1z" style="fill:var(--color1, #f4f4fd)"/><path fill="#2e2f42" d="m46.156 19.484-4.825-4.86.535-2.637c.138.054.285.082.433.083h.004a1.234 1.234 0 1 0-1.148-.82l-2.834.346-4.623-4.647a.301.301 0 0 0-.428-.002l-.864.859a.305.305 0 0 0 0 .431l.465.472a8.537 8.537 0 0 0 1.44 10.093.311.311 0 0 0 .083.056 1.823 1.823 0 0 0-.03.313v3.535h-3.657a1.526 1.526 0 0 0-1.524 1.524v.61c0 .168.137.305.305.305h14.019a.305.305 0 0 0 .305-.305v-.61a1.526 1.526 0 0 0-1.524-1.524h-3.657v-1.567c.573.12 1.157.181 1.742.183a8.496 8.496 0 0 0 4.023-1.019l.467.47a.301.301 0 0 0 .428.002l.864-.859a.305.305 0 0 0 0-.431zm-4.282-9.065a.61.61 0 1 1 .429 1.041h-.002a.609.609 0 0 1-.426-1.042h-.001zm-.717 2.002-.342 1.683-.672-.676 1.014-1.008zm-.346-.515-1.097 1.091-.849-.853 1.946-.237zm1.477 11.408c.505 0 .914.409.914.914v.305H29.793v-.305c0-.505.409-.914.914-.914h11.581zm-4.267-1.219v.61h-3.048v-.61h3.048zm-3.047-.609V19.17c0-.739.684-1.341 1.524-1.341s1.524.602 1.524 1.341v2.316h-3.048zm3.657-.969V19.17c0-1.075-.957-1.95-2.133-1.95a2.169 2.169 0 0 0-1.875 1.021 7.924 7.924 0 0 1-1.302-9.078l10.63 10.691a7.899 7.899 0 0 1-5.319.665zm6.451-.391L33.049 8.023l.431-.43 4.534 4.56c.002 0 .003.004.006.005l7.494 7.538-.433.43z" style="fill:var(--color2, #2e2f42)"/><path fill="#4d5ae5" d="M36.5 18.438h-.003a.915.915 0 0 0-.002 1.829h.003a.915.915 0 0 0 .003-1.829zm.214 1.13a.305.305 0 1 1-.216-.521.304.304 0 0 1 .213.521h.003z" style="fill:var(--color3, #4d5ae5)"/></symbol><symbol id="icon-Icon-2" viewBox="0 0 75 32"><path fill="#f4f4fd" d="M1.143.143h73.143a1 1 0 0 1 1 1v29.714a1 1 0 0 1-1 1H1.143a1 1 0 0 1-1-1V1.143a1 1 0 0 1 1-1z" style="fill:var(--color1, #f4f4fd)"/><path fill="#2e2f42" d="M46.455 15.601a8.746 8.746 0 1 0-11.406 8.332.385.385 0 0 0 .303-.038.365.365 0 0 0 .162-.204l2.209-7a1.094 1.094 0 1 0-.481-2.078l-2.918-2.918a.364.364 0 0 0-.515.515l2.916 2.919a1.071 1.071 0 0 0 .306 1.319l-2.104 6.67c-4.159-1.532-6.288-6.145-4.756-10.304s6.145-6.288 10.304-4.756a8.024 8.024 0 0 1 .492 14.86l-.227-1.071a.364.364 0 0 0-.599-.196l-2.193 1.957a.363.363 0 0 0 .132.619l2.799.893a.365.365 0 0 0 .468-.422l-.223-1.051a8.718 8.718 0 0 0 5.331-8.051zm-8.745-.365a.365.365 0 1 1 0 .73.365.365 0 0 1 0-.73zm1.2 8.494 1.248-1.113.345 1.623-1.593-.51z" style="fill:var(--color2, #2e2f42)"/><path fill="#4d5ae5" d="M37.345 8.677v.729a.364.364 0 0 0 .729 0v-.729a.364.364 0 0 0-.729 0zM30.786 15.236a.364.364 0 0 0 0 .728h.729a.364.364 0 0 0 0-.728h-.729zM44.633 15.965a.365.365 0 1 0 0-.728h-.729a.364.364 0 0 0 0 .728h.729z" style="fill:var(--color3, #4d5ae5)"/></symbol><symbol id="icon-Icon-3" viewBox="0 0 75 32"><path fill="#f4f4fd" d="M1.143.143h73.143a1 1 0 0 1 1 1v29.714a1 1 0 0 1-1 1H1.143a1 1 0 0 1-1-1V1.143a1 1 0 0 1 1-1z" style="fill:var(--color1, #f4f4fd)"/><path fill="#4d5ae5" d="M37.1 15.408h.609v2.741H37.1v-2.741zM39.537 16.627h.609v1.523h-.609v-1.523zM34.663 17.541h.609v.609h-.609v-.609zM32.836 17.236h.609v.914h-.609v-.914z" style="fill:var(--color3, #4d5ae5)"/><path fill="#2e2f42" d="M29.485 23.023h14.621a.914.914 0 0 0 .914-.914v-1.218a.914.914 0 0 0-.914-.914h-.305v-7.596l1.73-1.639a.92.92 0 1 0-.426-.436l-1.304 1.236v-.703a.914.914 0 0 0-.914-.914H30.703a.914.914 0 0 0-.914.914v9.138h-.305a.914.914 0 0 0-.914.914v1.218c0 .505.409.914.914.914zM45.934 9.621a.305.305 0 1 1 0 .61.305.305 0 0 1 0-.61zm-15.535 1.218c0-.168.136-.305.305-.305h12.184c.168 0 .305.136.305.305v1.279l-.609.579v-1.249a.305.305 0 0 0-.305-.305H31.313a.305.305 0 0 0-.305.305v7.615c0 .168.136.305.305.305h10.966a.305.305 0 0 0 .305-.305v-5.528l.609-.577v7.019H30.4v-9.138zm2.742 3.96a.914.914 0 1 0 .633 1.571l1.059.531a.304.304 0 0 0 .364-.07l2.251-2.532 2.213 1.658a.306.306 0 0 0 .392-.022l1.923-1.822v4.646H31.619v-7.006h10.357v1.52l-2.155 2.041-2.231-1.673a.304.304 0 0 0-.41.041l-2.282 2.567-.853-.427c.006-.037.01-.073.012-.111a.914.914 0 0 0-.914-.914zm.304.914a.306.306 0 1 1-.611-.001.306.306 0 0 1 .611.001zm1.828 4.874h3.046v.305a.305.305 0 0 1-.305.305h-2.437a.305.305 0 0 1-.305-.305v-.305zm-6.092.304c0-.168.137-.305.305-.305h5.178v.305c0 .505.409.914.914.914h2.437a.914.914 0 0 0 .914-.914v-.305h5.178c.168 0 .305.136.305.305v1.218a.306.306 0 0 1-.305.305H29.486a.305.305 0 0 1-.305-.305v-1.218z" style="fill:var(--color2, #2e2f42)"/></symbol><symbol id="icon-Rectangle-4" viewBox="0 0 75 32"><path fill="#f4f4fd" d="M1.143.143h73.143a1 1 0 0 1 1 1v29.714a1 1 0 0 1-1 1H1.143a1 1 0 0 1-1-1V1.143a1 1 0 0 1 1-1z" style="fill:var(--color1, #f4f4fd)"/></symbol><symbol id="icon-Social-Links" viewBox="0 0 166 32"><path fill="#4d5ae5" d="M32 16c0 4.418-1.791 8.418-4.686 11.314S20.419 32 16 32c-4.418 0-8.418-1.791-11.314-4.686S0 20.419 0 16c0-4.418 1.791-8.418 4.686-11.314S11.581 0 16 0c4.418 0 8.418 1.791 11.314 4.686S32 11.581 32 16z" style="fill:var(--color3, #4d5ae5)"/><path fill="#f4f4fd" d="M25.581 12.045c-.045-1.02-.21-1.722-.446-2.329a4.693 4.693 0 0 0-1.11-1.703 4.714 4.714 0 0 0-1.699-1.106c-.611-.236-1.309-.401-2.329-.446-1.028-.049-1.354-.06-3.961-.06s-2.933.011-3.957.056c-1.02.045-1.722.21-2.329.446a4.693 4.693 0 0 0-1.703 1.11 4.723 4.723 0 0 0-1.106 1.699c-.236.611-.401 1.309-.446 2.329-.049 1.028-.06 1.354-.06 3.961s.011 2.933.056 3.957c.045 1.02.21 1.722.446 2.329a4.745 4.745 0 0 0 1.11 1.703c.48.488 1.061.866 1.699 1.106.611.236 1.309.401 2.329.446 1.024.045 1.35.056 3.957.056s2.933-.011 3.957-.056c1.02-.045 1.722-.21 2.329-.446a4.912 4.912 0 0 0 2.809-2.809c.236-.611.401-1.309.446-2.329.045-1.024.056-1.35.056-3.957s-.004-2.933-.049-3.957zm-1.729 7.839c-.041.938-.199 1.444-.33 1.782a3.187 3.187 0 0 1-1.823 1.823c-.338.131-.848.289-1.782.33-1.013.045-1.316.056-3.878.056s-2.869-.011-3.878-.056c-.938-.041-1.444-.199-1.782-.33a2.972 2.972 0 0 1-1.103-.716 2.964 2.964 0 0 1-.716-1.103c-.131-.338-.289-.848-.33-1.782-.045-1.013-.056-1.317-.056-3.878s.011-2.869.056-3.878c.041-.938.199-1.444.33-1.782.154-.416.398-.795.72-1.103a2.964 2.964 0 0 1 1.103-.716c.338-.131.848-.289 1.782-.33 1.013-.045 1.317-.056 3.878-.056 2.566 0 2.869.011 3.878.056.938.041 1.444.199 1.782.33a2.96 2.96 0 0 1 1.103.716c.319.311.563.686.716 1.103.131.338.289.848.33 1.782.045 1.013.056 1.316.056 3.878s-.011 2.862-.056 3.875z" style="fill:var(--color1, #f4f4fd)"/><path fill="#f4f4fd" d="M16.036 11.07a4.933 4.933 0 0 0 0 9.864 4.933 4.933 0 0 0 0-9.864zm0 8.131a3.2 3.2 0 1 1 .002-6.4 3.2 3.2 0 0 1-.002 6.4zM22.314 10.875a1.151 1.151 0 1 1-2.303 0 1.151 1.151 0 0 1 2.303 0z" style="fill:var(--color1, #f4f4fd)"/><path fill="#4d5ae5" d="M76.8 16c0 4.418-1.791 8.418-4.686 11.314S65.219 32 60.8 32c-4.418 0-8.418-1.791-11.314-4.686S44.8 20.419 44.8 16c0-4.418 1.791-8.418 4.686-11.314S56.381 0 60.8 0c4.418 0 8.418 1.791 11.314 4.686S76.8 11.581 76.8 16z" style="fill:var(--color3, #4d5ae5)"/><path fill="#f4f4fd" d="M70.4 10.047a8.223 8.223 0 0 1-2.268.622 3.915 3.915 0 0 0 1.732-2.176 7.866 7.866 0 0 1-2.496.953 3.936 3.936 0 0 0-6.809 2.691c0 .312.026.612.091.898a11.143 11.143 0 0 1-8.113-4.117 3.96 3.96 0 0 0-.539 1.99c0 1.363.702 2.572 1.748 3.271a3.888 3.888 0 0 1-1.778-.485v.043a3.954 3.954 0 0 0 3.154 3.868c-.32.088-.67.13-1.032.13-.252 0-.506-.014-.745-.067.51 1.559 1.957 2.705 3.678 2.742a7.907 7.907 0 0 1-4.88 1.679c-.323 0-.632-.014-.942-.054a11.085 11.085 0 0 0 6.038 1.766c7.243 0 11.203-6 11.203-11.201 0-.174-.006-.342-.014-.509a7.845 7.845 0 0 0 1.973-2.044z" style="fill:var(--color1, #f4f4fd)"/><path fill="#4d5ae5" d="M121.6 16c0 4.418-1.791 8.418-4.686 11.314S110.019 32 105.6 32c-4.418 0-8.418-1.791-11.314-4.686S89.6 20.419 89.6 16c0-4.418 1.791-8.418 4.686-11.314S101.181 0 105.6 0c4.418 0 8.418 1.791 11.314 4.686S121.6 11.581 121.6 16z" style="fill:var(--color3, #4d5ae5)"/><path fill="#f4f4fd" d="M108.798 9.588h1.753V6.535a22.54 22.54 0 0 0-2.554-.135c-2.527 0-4.258 1.59-4.258 4.511V13.6h-2.789v3.413h2.789V25.6h3.419v-8.586h2.676l.425-3.413h-3.102V11.25c.001-.986.266-1.662 1.641-1.662z" style="fill:var(--color1, #f4f4fd)"/><path fill="#4d5ae5" d="M166.4 16c0 4.418-1.791 8.418-4.686 11.314S154.819 32 150.4 32c-4.418 0-8.418-1.791-11.314-4.686S134.4 20.419 134.4 16c0-4.418 1.791-8.418 4.686-11.314S145.981 0 150.4 0c4.418 0 8.418 1.791 11.314 4.686S166.4 11.581 166.4 16z" style="fill:var(--color3, #4d5ae5)"/><path fill="#f4f4fd" d="M159.995 25.6v-.001H160v-7.042c0-3.445-.742-6.098-4.769-6.098-1.936 0-3.235 1.062-3.766 2.07h-.056v-1.748h-3.818v12.818h3.976v-6.347c0-1.671.317-3.287 2.386-3.287 2.039 0 2.07 1.907 2.07 3.394V25.6h3.972zM141.117 12.782h3.981V25.6h-3.981V12.782zM143.106 6.4c-1.273 0-2.306 1.033-2.306 2.306s1.033 2.327 2.306 2.327c1.273 0 2.306-1.054 2.306-2.327S144.378 6.4 143.106 6.4z" style="fill:var(--color1, #f4f4fd)"/></symbol><symbol id="icon-Traling-Icons" viewBox="0 0 186 32"><path fill="#4d5ae5" d="M32 16c0 4.418-1.791 8.418-4.686 11.314S20.419 32 16 32c-4.418 0-8.418-1.791-11.314-4.686S0 20.419 0 16c0-4.418 1.791-8.418 4.686-11.314S11.581 0 16 0c4.418 0 8.418 1.791 11.314 4.686S32 11.581 32 16z" style="fill:var(--color3, #4d5ae5)"/><path fill="#f4f4fd" d="M22.387 13.363c-.03-.68-.14-1.148-.298-1.553a3.136 3.136 0 0 0-.74-1.135 3.153 3.153 0 0 0-1.133-.738c-.407-.158-.873-.268-1.553-.298-.685-.033-.903-.04-2.641-.04s-1.955.008-2.638.038c-.68.03-1.148.14-1.553.298-.43.163-.815.413-1.135.74-.325.32-.578.708-.738 1.133-.158.408-.268.873-.298 1.553-.032.685-.04.903-.04 2.641s.008 1.955.038 2.638c.03.68.14 1.148.298 1.553.162.43.415.815.74 1.135.32.325.708.578 1.133.738.408.158.873.268 1.553.298.682.03.9.038 2.638.038s1.955-.007 2.638-.038c.68-.03 1.148-.14 1.553-.298a3.278 3.278 0 0 0 1.873-1.873c.157-.408.268-.873.298-1.553.03-.683.038-.9.038-2.638s-.003-1.955-.033-2.638zm-1.152 5.226c-.028.625-.133.963-.22 1.188-.215.558-.658 1-1.215 1.215-.225.088-.565.192-1.188.22-.675.03-.878.038-2.585.038s-1.913-.007-2.586-.038c-.625-.027-.963-.132-1.188-.22a1.966 1.966 0 0 1-.735-.478 1.998 1.998 0 0 1-.478-.735c-.088-.225-.193-.565-.22-1.188-.03-.675-.038-.878-.038-2.586s.007-1.913.038-2.585c.027-.625.132-.963.22-1.188.103-.278.265-.53.48-.735.207-.212.458-.375.735-.478.225-.088.565-.192 1.188-.22.675-.03.878-.038 2.586-.038 1.71 0 1.913.008 2.586.038.625.028.963.133 1.188.22.277.102.53.265.735.478.213.208.375.458.478.735.088.225.192.565.22 1.188.03.675.037.878.037 2.585s-.008 1.908-.037 2.583z" style="fill:var(--color1, #f4f4fd)"/><path fill="#f4f4fd" d="M16.024 12.713a3.29 3.29 0 0 0 0 6.576 3.29 3.29 0 0 0 0-6.576zm0 5.421a2.133 2.133 0 1 1 0-4.266 2.133 2.133 0 0 1 0 4.266zM20.21 12.583a.768.768 0 1 1-1.536 0 .768.768 0 0 1 1.536 0z" style="fill:var(--color1, #f4f4fd)"/><path fill="#4d5ae5" d="M83.2 16c0 4.418-1.791 8.418-4.686 11.314S71.619 32 67.2 32s-8.418-1.791-11.314-4.686C52.991 24.419 51.2 20.419 51.2 16s1.791-8.418 4.686-11.314S62.781 0 67.2 0c4.418 0 8.418 1.791 11.314 4.686S83.2 11.581 83.2 16z" style="fill:var(--color3, #4d5ae5)"/><path fill="#f4f4fd" d="M73.6 12.031a5.455 5.455 0 0 1-1.512.414 2.608 2.608 0 0 0 1.154-1.45 5.245 5.245 0 0 1-1.664.635 2.623 2.623 0 0 0-4.539 1.795c0 .208.018.408.061.598a7.426 7.426 0 0 1-5.409-2.745 2.628 2.628 0 0 0 .807 3.507 2.591 2.591 0 0 1-1.186-.323v.029c0 1.275.91 2.334 2.102 2.578a2.636 2.636 0 0 1-.688.086c-.168 0-.338-.01-.497-.045a2.65 2.65 0 0 0 2.452 1.828 5.275 5.275 0 0 1-3.882 1.083 7.384 7.384 0 0 0 4.026 1.178c4.829 0 7.469-4 7.469-7.467a6.24 6.24 0 0 0-.01-.339c.521-.37.958-.831 1.315-1.362z" style="fill:var(--color1, #f4f4fd)"/><path fill="#4d5ae5" d="M134.4 16c0 4.418-1.791 8.418-4.686 11.314S122.819 32 118.4 32c-4.418 0-8.418-1.791-11.314-4.686S102.4 20.419 102.4 16c0-4.418 1.791-8.418 4.686-11.314S113.981 0 118.4 0c4.418 0 8.418 1.791 11.314 4.686S134.4 11.581 134.4 16z" style="fill:var(--color3, #4d5ae5)"/><path fill="#f4f4fd" d="M120.532 11.725h1.168V9.69c-.202-.028-.894-.09-1.702-.09-1.685 0-2.838 1.06-2.838 3.008V14.4h-1.859v2.275h1.859V22.4h2.279v-5.724h1.784l.283-2.275h-2.068v-1.567c.001-.658.178-1.108 1.094-1.108z" style="fill:var(--color1, #f4f4fd)"/><path fill="#4d5ae5" d="M185.6 16c0 4.418-1.791 8.418-4.686 11.314S174.019 32 169.6 32c-4.418 0-8.418-1.791-11.314-4.686S153.6 20.419 153.6 16c0-4.418 1.791-8.418 4.686-11.314S165.181 0 169.6 0c4.418 0 8.418 1.791 11.314 4.686S185.6 11.581 185.6 16z" style="fill:var(--color3, #4d5ae5)"/><path fill="#f4f4fd" d="M175.997 22.4v-.001H176v-4.694c0-2.297-.494-4.066-3.179-4.066-1.29 0-2.157.708-2.51 1.38h-.038v-1.165h-2.546V22.4h2.651v-4.231c0-1.114.211-2.192 1.59-2.192 1.36 0 1.38 1.272 1.38 2.263v4.161h2.648zM163.411 13.854h2.654V22.4h-2.654v-8.546zM164.737 9.6c-.848 0-1.537.689-1.537 1.537s.689 1.551 1.537 1.551c.849 0 1.538-.703 1.538-1.551s-.69-1.537-1.538-1.537z" style="fill:var(--color1, #f4f4fd)"/></symbol><symbol id="icon-Traling-Icons-1" viewBox="0 0 186 32"><path fill="#4d5ae5" d="M32 16c0 4.418-1.791 8.418-4.686 11.314S20.419 32 16 32c-4.418 0-8.418-1.791-11.314-4.686S0 20.419 0 16c0-4.418 1.791-8.418 4.686-11.314S11.581 0 16 0c4.418 0 8.418 1.791 11.314 4.686S32 11.581 32 16z" style="fill:var(--color3, #4d5ae5)"/><path fill="#f4f4fd" d="M22.387 13.363c-.03-.68-.14-1.148-.298-1.553a3.136 3.136 0 0 0-.74-1.135 3.153 3.153 0 0 0-1.133-.738c-.408-.158-.873-.268-1.553-.298-.685-.033-.903-.04-2.641-.04s-1.955.008-2.638.038c-.68.03-1.148.14-1.553.298-.43.163-.815.413-1.135.74-.325.32-.578.708-.738 1.133-.158.408-.268.873-.298 1.553-.032.685-.04.903-.04 2.641s.008 1.955.038 2.638c.03.68.14 1.148.298 1.553.162.43.415.815.74 1.135.32.325.708.578 1.133.738.408.158.873.268 1.553.298.683.03.9.038 2.638.038s1.955-.007 2.638-.038c.68-.03 1.148-.14 1.553-.298a3.278 3.278 0 0 0 1.873-1.873c.157-.408.268-.873.298-1.553.03-.683.038-.9.038-2.638s-.003-1.955-.033-2.638zm-1.152 5.226c-.028.625-.133.963-.22 1.188-.215.558-.658 1-1.215 1.215-.225.088-.565.192-1.188.22-.675.03-.878.038-2.585.038s-1.913-.007-2.586-.038c-.625-.027-.963-.132-1.188-.22a1.966 1.966 0 0 1-.735-.478 1.998 1.998 0 0 1-.478-.735c-.088-.225-.193-.565-.22-1.188-.03-.675-.038-.878-.038-2.586s.007-1.913.038-2.585c.027-.625.132-.963.22-1.188.103-.278.265-.53.48-.735.207-.212.458-.375.735-.478.225-.088.565-.192 1.188-.22.675-.03.878-.038 2.586-.038 1.71 0 1.913.008 2.586.038.625.028.963.133 1.188.22.277.102.53.265.735.478.212.208.375.458.478.735.088.225.192.565.22 1.188.03.675.038.878.038 2.585s-.008 1.908-.038 2.583z" style="fill:var(--color1, #f4f4fd)"/><path fill="#f4f4fd" d="M16.024 12.713a3.29 3.29 0 0 0 0 6.576 3.29 3.29 0 0 0 0-6.576zm0 5.421a2.133 2.133 0 1 1 0-4.266 2.133 2.133 0 0 1 0 4.266zM20.21 12.583a.768.768 0 1 1-1.536 0 .768.768 0 0 1 1.536 0z" style="fill:var(--color1, #f4f4fd)"/><path fill="#4d5ae5" d="M83.2 16c0 4.418-1.791 8.418-4.686 11.314S71.619 32 67.2 32s-8.418-1.791-11.314-4.686C52.991 24.419 51.2 20.419 51.2 16s1.791-8.418 4.686-11.314S62.781 0 67.2 0c4.418 0 8.418 1.791 11.314 4.686S83.2 11.581 83.2 16z" style="fill:var(--color3, #4d5ae5)"/><path fill="#f4f4fd" d="M73.6 12.031a5.455 5.455 0 0 1-1.512.414 2.608 2.608 0 0 0 1.154-1.45 5.245 5.245 0 0 1-1.664.635 2.623 2.623 0 0 0-4.539 1.795c0 .208.018.408.061.598a7.426 7.426 0 0 1-5.409-2.745 2.628 2.628 0 0 0 .807 3.507 2.591 2.591 0 0 1-1.186-.323v.029c0 1.275.91 2.334 2.102 2.578a2.636 2.636 0 0 1-.688.086c-.168 0-.338-.01-.497-.045a2.65 2.65 0 0 0 2.452 1.828 5.275 5.275 0 0 1-3.882 1.083 7.384 7.384 0 0 0 4.026 1.178c4.829 0 7.469-4 7.469-7.467a6.24 6.24 0 0 0-.01-.339c.521-.37.958-.831 1.315-1.362z" style="fill:var(--color1, #f4f4fd)"/><path fill="#4d5ae5" d="M134.4 16c0 4.418-1.791 8.418-4.686 11.314S122.819 32 118.4 32c-4.418 0-8.418-1.791-11.314-4.686S102.4 20.419 102.4 16c0-4.418 1.791-8.418 4.686-11.314S113.981 0 118.4 0c4.418 0 8.418 1.791 11.314 4.686S134.4 11.581 134.4 16z" style="fill:var(--color3, #4d5ae5)"/><path fill="#f4f4fd" d="M120.532 11.725h1.168V9.69c-.202-.028-.894-.09-1.702-.09-1.685 0-2.838 1.06-2.838 3.008V14.4h-1.859v2.275h1.859V22.4h2.279v-5.724h1.784l.283-2.275h-2.068v-1.567c.001-.658.178-1.108 1.094-1.108z" style="fill:var(--color1, #f4f4fd)"/><path fill="#4d5ae5" d="M185.6 16c0 4.418-1.791 8.418-4.686 11.314S174.019 32 169.6 32c-4.418 0-8.418-1.791-11.314-4.686S153.6 20.419 153.6 16c0-4.418 1.791-8.418 4.686-11.314S165.181 0 169.6 0c4.418 0 8.418 1.791 11.314 4.686S185.6 11.581 185.6 16z" style="fill:var(--color3, #4d5ae5)"/><path fill="#f4f4fd" d="M175.997 22.4v-.001H176v-4.694c0-2.297-.494-4.066-3.179-4.066-1.29 0-2.157.708-2.51 1.38h-.038v-1.165h-2.546V22.4h2.651v-4.231c0-1.114.211-2.192 1.59-2.192 1.36 0 1.38 1.272 1.38 2.263v4.161h2.648zM163.411 13.854h2.654V22.4h-2.654v-8.546zM164.737 9.6c-.848 0-1.537.689-1.537 1.537s.689 1.551 1.537 1.551c.849 0 1.538-.703 1.538-1.551s-.69-1.537-1.538-1.537z" style="fill:var(--color1, #f4f4fd)"/></symbol><symbol id="icon-Traling-Icons-2" viewBox="0 0 186 32"><path fill="#4d5ae5" d="M32 16c0 4.418-1.791 8.418-4.686 11.314S20.419 32 16 32c-4.418 0-8.418-1.791-11.314-4.686S0 20.419 0 16c0-4.418 1.791-8.418 4.686-11.314S11.581 0 16 0c4.418 0 8.418 1.791 11.314 4.686S32 11.581 32 16z" style="fill:var(--color3, #4d5ae5)"/><path fill="#f4f4fd" d="M22.387 13.363c-.03-.68-.14-1.148-.298-1.553a3.136 3.136 0 0 0-.74-1.135 3.153 3.153 0 0 0-1.133-.738c-.408-.158-.873-.268-1.553-.298-.685-.033-.903-.04-2.641-.04s-1.955.008-2.638.038c-.68.03-1.148.14-1.553.298-.43.163-.815.413-1.135.74-.325.32-.578.708-.738 1.133-.158.408-.268.873-.298 1.553-.032.685-.04.903-.04 2.641s.008 1.955.038 2.638c.03.68.14 1.148.298 1.553.162.43.415.815.74 1.135.32.325.708.578 1.133.738.408.158.873.268 1.553.298.683.03.9.038 2.638.038s1.955-.007 2.638-.038c.68-.03 1.148-.14 1.553-.298a3.278 3.278 0 0 0 1.873-1.873c.157-.408.268-.873.298-1.553.03-.683.038-.9.038-2.638s-.003-1.955-.033-2.638zm-1.152 5.226c-.028.625-.133.963-.22 1.188-.215.558-.658 1-1.215 1.215-.225.088-.565.192-1.188.22-.675.03-.878.038-2.585.038s-1.913-.007-2.586-.038c-.625-.027-.963-.132-1.188-.22a1.966 1.966 0 0 1-.735-.478 1.998 1.998 0 0 1-.478-.735c-.088-.225-.193-.565-.22-1.188-.03-.675-.038-.878-.038-2.586s.007-1.913.038-2.585c.027-.625.132-.963.22-1.188.103-.278.265-.53.48-.735.207-.212.458-.375.735-.478.225-.088.565-.192 1.188-.22.675-.03.878-.038 2.586-.038 1.71 0 1.913.008 2.586.038.625.028.963.133 1.188.22.277.102.53.265.735.478.212.208.375.458.478.735.088.225.192.565.22 1.188.03.675.038.878.038 2.585s-.008 1.908-.038 2.583z" style="fill:var(--color1, #f4f4fd)"/><path fill="#f4f4fd" d="M16.024 12.713a3.29 3.29 0 0 0 0 6.576 3.29 3.29 0 0 0 0-6.576zm0 5.421a2.133 2.133 0 1 1 0-4.266 2.133 2.133 0 0 1 0 4.266zM20.21 12.583a.768.768 0 1 1-1.536 0 .768.768 0 0 1 1.536 0z" style="fill:var(--color1, #f4f4fd)"/><path fill="#4d5ae5" d="M83.2 16c0 4.418-1.791 8.418-4.686 11.314S71.619 32 67.2 32s-8.418-1.791-11.314-4.686C52.991 24.419 51.2 20.419 51.2 16s1.791-8.418 4.686-11.314S62.781 0 67.2 0c4.418 0 8.418 1.791 11.314 4.686S83.2 11.581 83.2 16z" style="fill:var(--color3, #4d5ae5)"/><path fill="#f4f4fd" d="M73.6 12.031a5.455 5.455 0 0 1-1.512.414 2.608 2.608 0 0 0 1.154-1.45 5.245 5.245 0 0 1-1.664.635 2.623 2.623 0 0 0-4.539 1.795c0 .208.018.408.061.598a7.426 7.426 0 0 1-5.409-2.745 2.628 2.628 0 0 0 .807 3.507 2.591 2.591 0 0 1-1.186-.323v.029c0 1.275.91 2.334 2.102 2.578a2.636 2.636 0 0 1-.688.086c-.168 0-.338-.01-.497-.045a2.65 2.65 0 0 0 2.452 1.828 5.275 5.275 0 0 1-3.882 1.083 7.384 7.384 0 0 0 4.026 1.178c4.829 0 7.469-4 7.469-7.467a6.24 6.24 0 0 0-.01-.339c.521-.37.958-.831 1.315-1.362z" style="fill:var(--color1, #f4f4fd)"/><path fill="#4d5ae5" d="M134.4 16c0 4.418-1.791 8.418-4.686 11.314S122.819 32 118.4 32c-4.418 0-8.418-1.791-11.314-4.686S102.4 20.419 102.4 16c0-4.418 1.791-8.418 4.686-11.314S113.981 0 118.4 0c4.418 0 8.418 1.791 11.314 4.686S134.4 11.581 134.4 16z" style="fill:var(--color3, #4d5ae5)"/><path fill="#f4f4fd" d="M120.532 11.725h1.168V9.69c-.202-.028-.894-.09-1.702-.09-1.685 0-2.838 1.06-2.838 3.008V14.4h-1.859v2.275h1.859V22.4h2.279v-5.724h1.784l.283-2.275h-2.068v-1.567c.001-.658.178-1.108 1.094-1.108z" style="fill:var(--color1, #f4f4fd)"/><path fill="#4d5ae5" d="M185.6 16c0 4.418-1.791 8.418-4.686 11.314S174.019 32 169.6 32c-4.418 0-8.418-1.791-11.314-4.686S153.6 20.419 153.6 16c0-4.418 1.791-8.418 4.686-11.314S165.181 0 169.6 0c4.418 0 8.418 1.791 11.314 4.686S185.6 11.581 185.6 16z" style="fill:var(--color3, #4d5ae5)"/><path fill="#f4f4fd" d="M175.997 22.4v-.001H176v-4.694c0-2.297-.494-4.066-3.179-4.066-1.29 0-2.157.708-2.51 1.38h-.038v-1.165h-2.546V22.4h2.651v-4.231c0-1.114.211-2.192 1.59-2.192 1.36 0 1.38 1.272 1.38 2.263v4.161h2.648zM163.411 13.854h2.654V22.4h-2.654v-8.546zM164.737 9.6c-.848 0-1.537.689-1.537 1.537s.689 1.551 1.537 1.551c.849 0 1.538-.703 1.538-1.551s-.69-1.537-1.538-1.537z" style="fill:var(--color1, #f4f4fd)"/></symbol><symbol id="icon-Traling-Icons-3" viewBox="0 0 186 32"><path fill="#4d5ae5" d="M32 16c0 4.418-1.791 8.418-4.686 11.314S20.419 32 16 32c-4.418 0-8.418-1.791-11.314-4.686S0 20.419 0 16c0-4.418 1.791-8.418 4.686-11.314S11.581 0 16 0c4.418 0 8.418 1.791 11.314 4.686S32 11.581 32 16z" style="fill:var(--color3, #4d5ae5)"/><path fill="#f4f4fd" d="M22.387 13.363c-.03-.68-.14-1.148-.298-1.553a3.136 3.136 0 0 0-.74-1.135 3.153 3.153 0 0 0-1.133-.738c-.408-.158-.873-.268-1.553-.298-.685-.033-.903-.04-2.641-.04s-1.955.008-2.638.038c-.68.03-1.148.14-1.553.298-.43.163-.815.413-1.135.74-.325.32-.578.708-.738 1.133-.158.408-.268.873-.298 1.553-.032.685-.04.903-.04 2.641s.008 1.955.038 2.638c.03.68.14 1.148.298 1.553.162.43.415.815.74 1.135.32.325.708.578 1.133.738.408.158.873.268 1.553.298.683.03.9.038 2.638.038s1.955-.007 2.638-.038c.68-.03 1.148-.14 1.553-.298a3.278 3.278 0 0 0 1.873-1.873c.157-.408.268-.873.298-1.553.03-.683.038-.9.038-2.638s-.003-1.955-.033-2.638zm-1.152 5.226c-.028.625-.133.963-.22 1.188-.215.558-.658 1-1.215 1.215-.225.088-.565.192-1.188.22-.675.03-.878.038-2.585.038s-1.913-.007-2.586-.038c-.625-.027-.963-.132-1.188-.22a1.966 1.966 0 0 1-.735-.478 1.998 1.998 0 0 1-.478-.735c-.088-.225-.193-.565-.22-1.188-.03-.675-.038-.878-.038-2.586s.007-1.913.038-2.585c.027-.625.132-.963.22-1.188.103-.278.265-.53.48-.735.207-.212.458-.375.735-.478.225-.088.565-.192 1.188-.22.675-.03.878-.038 2.586-.038 1.71 0 1.913.008 2.586.038.625.028.963.133 1.188.22.277.102.53.265.735.478.212.208.375.458.478.735.088.225.192.565.22 1.188.03.675.038.878.038 2.585s-.008 1.908-.038 2.583z" style="fill:var(--color1, #f4f4fd)"/><path fill="#f4f4fd" d="M16.024 12.713a3.29 3.29 0 0 0 0 6.576 3.29 3.29 0 0 0 0-6.576zm0 5.421a2.133 2.133 0 1 1 0-4.266 2.133 2.133 0 0 1 0 4.266zM20.21 12.583a.768.768 0 1 1-1.536 0 .768.768 0 0 1 1.536 0z" style="fill:var(--color1, #f4f4fd)"/><path fill="#4d5ae5" d="M83.2 16c0 4.418-1.791 8.418-4.686 11.314S71.619 32 67.2 32s-8.418-1.791-11.314-4.686C52.991 24.419 51.2 20.419 51.2 16s1.791-8.418 4.686-11.314S62.781 0 67.2 0c4.418 0 8.418 1.791 11.314 4.686S83.2 11.581 83.2 16z" style="fill:var(--color3, #4d5ae5)"/><path fill="#f4f4fd" d="M73.6 12.031a5.455 5.455 0 0 1-1.512.414 2.608 2.608 0 0 0 1.154-1.45 5.245 5.245 0 0 1-1.664.635 2.623 2.623 0 0 0-4.539 1.795c0 .208.018.408.061.598a7.426 7.426 0 0 1-5.409-2.745 2.628 2.628 0 0 0 .807 3.507 2.591 2.591 0 0 1-1.186-.323v.029c0 1.275.91 2.334 2.102 2.578a2.636 2.636 0 0 1-.688.086c-.168 0-.338-.01-.497-.045a2.65 2.65 0 0 0 2.452 1.828 5.275 5.275 0 0 1-3.882 1.083 7.384 7.384 0 0 0 4.026 1.178c4.829 0 7.469-4 7.469-7.467a6.24 6.24 0 0 0-.01-.339c.521-.37.958-.831 1.315-1.362z" style="fill:var(--color1, #f4f4fd)"/><path fill="#4d5ae5" d="M134.4 16c0 4.418-1.791 8.418-4.686 11.314S122.819 32 118.4 32c-4.418 0-8.418-1.791-11.314-4.686S102.4 20.419 102.4 16c0-4.418 1.791-8.418 4.686-11.314S113.981 0 118.4 0c4.418 0 8.418 1.791 11.314 4.686S134.4 11.581 134.4 16z" style="fill:var(--color3, #4d5ae5)"/><path fill="#f4f4fd" d="M120.532 11.725h1.168V9.69c-.202-.028-.894-.09-1.702-.09-1.685 0-2.838 1.06-2.838 3.008V14.4h-1.859v2.275h1.859V22.4h2.279v-5.724h1.784l.283-2.275h-2.068v-1.567c.001-.658.178-1.108 1.094-1.108z" style="fill:var(--color1, #f4f4fd)"/><path fill="#4d5ae5" d="M185.6 16c0 4.418-1.791 8.418-4.686 11.314S174.019 32 169.6 32c-4.418 0-8.418-1.791-11.314-4.686S153.6 20.419 153.6 16c0-4.418 1.791-8.418 4.686-11.314S165.181 0 169.6 0c4.418 0 8.418 1.791 11.314 4.686S185.6 11.581 185.6 16z" style="fill:var(--color3, #4d5ae5)"/><path fill="#f4f4fd" d="M175.997 22.4v-.001H176v-4.694c0-2.297-.494-4.066-3.179-4.066-1.29 0-2.157.708-2.51 1.38h-.038v-1.165h-2.546V22.4h2.651v-4.231c0-1.114.211-2.192 1.59-2.192 1.36 0 1.38 1.272 1.38 2.263v4.161h2.648zM163.411 13.854h2.654V22.4h-2.654v-8.546zM164.737 9.6c-.848 0-1.537.689-1.537 1.537s.689 1.551 1.537 1.551c.849 0 1.538-.703 1.538-1.551s-.69-1.537-1.538-1.537z" style="fill:var(--color1, #f4f4fd)"/></symbol></defs></svg>